<svg width="68" height="50" viewBox="0 0 68 50" fill="none" xmlns="http://www.w3.org/2000/svg">
<path d="M59.9999 44.9605C60.4886 40.0025 56.0413 36.8884 51.7894 36.6016C47.2932 36.3147 41.6729 39.5928 42.3571 44.9196C36.7857 44.9196 31.2632 44.9196 25.6918 44.9196C26.1805 39.8386 21.7331 36.9294 17.6768 36.6016C12.9362 36.2328 7.41362 39.6747 8.14671 44.9605C6.04521 44.9605 3.89484 45.0015 1.79334 44.9605C1.10913 44.9605 0.815901 44.4688 0.767029 43.7313C0.767029 41.3137 0.767029 38.8962 0.767029 36.4786C0.767029 36.2328 0.767029 35.9459 0.767029 35.7001C0.815901 35.0035 1.30462 34.5938 2.08657 34.5938C2.28206 34.5938 2.52642 34.5938 2.72191 34.5938C15.8196 34.5938 28.9662 34.5938 42.0639 34.5938C42.3571 34.5938 42.6992 34.5938 43.0902 34.5938C43.0902 34.3069 43.0902 34.0611 43.0902 33.8152C43.0902 27.587 43.0902 21.3997 43.0902 15.1714C43.0902 13.9421 43.3834 13.6963 44.8985 13.6963C48.0752 13.6963 51.3007 13.6963 54.4774 13.6963C55.1616 13.6963 55.6503 13.8602 56.139 14.2699C59.5112 17.1382 62.9323 19.9655 66.3044 22.8338C66.9398 23.3665 67.233 23.8992 67.233 24.6777C67.1841 31.0289 67.233 37.3391 67.233 43.6903C67.233 44.8376 66.9886 45.0425 65.6202 45.0425C63.8119 44.9605 61.9548 44.9605 59.9999 44.9605ZM61.9059 29.0211C61.9059 28.2835 61.9548 27.587 61.9059 26.8904C61.9059 26.6036 61.7593 26.2757 61.515 26.1118C58.5338 23.5714 55.5526 21.0719 52.5225 18.5724C52.3759 18.4494 52.1804 18.2855 51.9849 18.2855C50.8609 18.2446 49.7857 18.2855 48.6616 18.2855C48.6616 21.9324 48.6616 25.4972 48.6616 29.0621C53.0601 29.0211 57.4097 29.0211 61.9059 29.0211Z" fill="white"/>
<path d="M7.7558 8.45109C7.7558 11.5242 7.7558 14.5974 7.80467 17.6296C7.80467 17.8345 8.14678 18.0803 8.39114 18.2032C11.128 19.4735 11.4212 22.5466 8.87986 23.9808C7.60919 24.7183 6.24077 24.8003 4.87235 24.1857C3.55281 23.571 2.77086 22.6286 2.72198 21.3174C2.72198 20.7027 3.01522 20.334 3.65055 20.252C4.38363 20.1701 4.87235 20.4569 4.9701 21.1125C5.06784 21.8501 5.45882 22.3827 6.38739 22.5876C7.21821 22.7515 8.09791 22.2598 8.2934 21.6042C8.48888 20.9076 8.04904 20.1701 7.26708 19.9242C7.07159 19.8832 6.87611 19.8423 6.68062 19.8013C5.80092 19.6784 5.50769 19.4325 5.50769 18.654C5.50769 17.5476 5.50769 16.4003 5.50769 15.294C5.50769 11.975 5.50769 8.65597 5.50769 5.33696C5.50769 4.9272 5.45882 4.47647 5.36107 4.06672C4.92123 2.83745 5.55656 1.60819 6.92498 0.911609C8.24452 0.256002 9.8573 0.378928 10.9814 1.19844C11.3235 1.44429 11.5678 1.73112 11.8122 2.01795C19.5828 11.1555 27.2557 20.252 34.9775 29.3486C35.3196 29.7583 35.6617 29.8812 36.2482 29.8812C37.2745 29.9222 38.3497 29.9632 39.3271 30.25C40.9888 30.7008 41.0865 30.9876 40.9888 32.5037C32.4362 32.5037 23.8347 32.5037 15.1844 32.5037C16.6016 30.332 18.8009 29.6764 21.7332 29.8812C17.0904 22.6286 12.4964 15.4989 7.95129 8.36914C7.85355 8.41011 7.80468 8.45109 7.7558 8.45109ZM9.95504 3.24721C9.95504 2.67355 9.41745 2.22282 8.68437 2.22282C8.00016 2.22282 7.51144 2.63258 7.51144 3.24721C7.51144 3.82086 8.09791 4.27159 8.78212 4.27159C9.46632 4.27159 9.95504 3.82086 9.95504 3.24721Z" fill="white"/>
<path d="M16.8459 49.5087C13.1805 49.5087 10.2482 47.0912 10.2482 44.018C10.2482 40.9858 13.1805 38.4863 16.7481 38.4863C20.4136 38.4863 23.3947 40.9449 23.3947 43.977C23.4436 47.0092 20.5113 49.5087 16.8459 49.5087Z" fill="white"/>
<path d="M51.1052 49.5087C47.4398 49.5087 44.5074 47.0502 44.5074 43.977C44.5074 40.9448 47.4886 38.4453 51.1052 38.4453C54.7217 38.4453 57.654 40.9858 57.654 44.018C57.654 47.0911 54.7217 49.5087 51.1052 49.5087Z" fill="white"/>
</svg>
